<?xml version="1.0" encoding="UTF-8"?>
<svg xmlns="http://www.w3.org/2000/svg" viewBox="0 0 128 128">
  <defs>
    <linearGradient id="grad1" x1="0%" y1="0%" x2="100%" y2="100%">
      <stop offset="0%" style="stop-color:#667eea;stop-opacity:1" />
      <stop offset="100%" style="stop-color:#764ba2;stop-opacity:1" />
    </linearGradient>
  </defs>
  
  <!-- Browser Window Design -->
  <g id="browser-window">
    <rect x="10" y="20" width="108" height="88" rx="8" fill="white" stroke="url(#grad1)" stroke-width="4"/>
    <rect x="10" y="20" width="108" height="20" rx="8" fill="url(#grad1)"/>
    <circle cx="30" cy="30" r="5" fill="#ff6b6b"/>
    <circle cx="45" cy="30" r="5" fill="#feca57"/>
    <circle cx="60" cy="30" r="5" fill="#48dbfb"/>
    <rect x="20" y="55" width="88" height="8" rx="4" fill="#e9ecef"/>
    <rect x="20" y="70" width="60" height="8" rx="4" fill="#e9ecef"/>
    <rect x="20" y="85" width="72" height="8" rx="4" fill="#e9ecef"/>
  </g>

  <!-- Alternative Designs (Hidden) -->
  <g id="abstract-tab" style="display:none">
    <rect x="10" y="10" width="108" height="108" rx="12" fill="white"/>
    <path d="M10 35 L10 25 Q10 10 25 10 L45 10 L50 25 L10 35 Z" fill="url(#grad1)"/>
    <path d="M25 10 L50 25 L50 10 Z" fill="#5568d3"/>
    <circle cx="64" cy="64" r="20" fill="url(#grad1)" opacity="0.9"/>
    <path d="M56 64 L62 70 L74 58" fill="none" stroke="white" stroke-width="6" stroke-linecap="round" stroke-linejoin="round"/>
  </g>

  <g id="globe" style="display:none">
    <circle cx="64" cy="64" r="50" fill="url(#grad1)"/>
    <ellipse cx="64" cy="64" rx="50" ry="18" fill="none" stroke="white" stroke-width="4" opacity="0.3"/>
    <ellipse cx="64" cy="64" rx="18" ry="50" fill="none" stroke="white" stroke-width="4" opacity="0.3"/>
    <line x1="14" y1="64" x2="114" y2="64" stroke="white" stroke-width="4" opacity="0.3"/>
    <circle cx="64" cy="64" r="35" fill="none" stroke="white" stroke-width="3" opacity="0.2"/>
  </g>

  <g id="layers" style="display:none">
    <rect x="20" y="30" width="88" height="68" rx="6" fill="url(#grad1)" transform="rotate(-5 64 64)" opacity="0.6"/>
    <rect x="20" y="30" width="88" height="68" rx="6" fill="url(#grad1)"/>
    <rect x="20" y="30" width="88" height="20" rx="6" fill="url(#grad1)"/>
    <circle cx="32" cy="40" r="4" fill="white" opacity="0.9"/>
    <circle cx="44" cy="40" r="4" fill="white" opacity="0.9"/>
    <circle cx="56" cy="40" r="4" fill="white" opacity="0.9"/>
  </g>

  <g id="arrow" style="display:none">
    <rect x="10" y="10" width="108" height="108" rx="16" fill="white"/>
    <path d="M35 64 L55 44 L55 58 L93 58 L93 70 L55 70 L55 84 Z" fill="url(#grad1)"/>
  </g>
</svg>
